<?xml version="1.0" encoding="utf-8"?>
<!-- Generator: Adobe Illustrator 26.0.2, SVG Export Plug-In . SVG Version: 6.00 Build 0)  -->
<svg version="1.1" id="Layer_1" xmlns="http://www.w3.org/2000/svg" xmlns:xlink="http://www.w3.org/1999/xlink" x="0px" y="0px"
	 viewBox="0 0 40 50" style="enable-background:new 0 0 40 50;" xml:space="preserve">
<style type="text/css">
	
		.Graphic_x0020_Style_x0020_98{fill:none;stroke:#000000;stroke-width:2;stroke-linecap:round;stroke-linejoin:round;stroke-miterlimit:10;}
	
		.Graphic_x0020_Style_x0020_99{fill:none;stroke:#000000;stroke-width:2;stroke-linecap:round;stroke-linejoin:round;stroke-miterlimit:10;}
	
		.Graphic_x0020_Style_x0020_88{fill:none;stroke:#000000;stroke-width:2;stroke-linecap:round;stroke-linejoin:round;stroke-miterlimit:10;}
	
		.Graphic_x0020_Style_x0020_89{fill:none;stroke:#000000;stroke-width:2;stroke-linecap:round;stroke-linejoin:round;stroke-miterlimit:10;}
	
		.Graphic_x0020_Style_x0020_84{fill:none;stroke:#000000;stroke-width:2;stroke-linecap:round;stroke-linejoin:round;stroke-miterlimit:10;}
	.st0{fill:none;stroke:#000000;stroke-width:2;stroke-linecap:round;stroke-linejoin:round;stroke-miterlimit:10;}
</style>
<g>
	<path id="XMLID_930_" class="Graphic_x0020_Style_x0020_99" d="M7.18,18.22C6.71,21.33,9.1,24,12.12,24h17
		c2.51,0,4.49-2.32,3.89-4.94c-0.32-1.43-1.48-2.6-2.91-2.94c-1.35-0.33-2.6,0.04-3.51,0.8c-0.19,0.16-0.49,0.06-0.52-0.19
		C25.69,13.5,22.95,11,19.62,11c-2.45,0-4.58,1.35-5.69,3.35c-0.99-0.39-2.11-0.5-3.31-0.11C8.84,14.82,7.46,16.36,7.18,18.22"/>
	<path id="XMLID_999_" class="Graphic_x0020_Style_x0020_98" d="M-8.93,32.73c0.02,0.16,0.16,0.25,0.31,0.26c0.02,0,0.04,0,0.06,0
		c0.05-0.01,0.11-0.03,0.15-0.07c0.87-0.72,2.05-1.08,3.32-0.84c1.2-0.71,2.16-1.78,2.71-3.08h0c-3.59,0-6.5-2.91-6.5-6.5
		c0-0.89,0.18-1.73,0.5-2.5c-3.59,0-6.5,2.91-6.5,6.5c0,0.18,0.01,0.35,0.03,0.52C-11.77,27.27-9.29,29.68-8.93,32.73z"/>
</g>
<g>
	<path id="XMLID_305_" class="Graphic_x0020_Style_x0020_88" d="M48.18,14.02c-0.47,3.11,1.92,5.78,4.94,5.78h17
		c2.51,0,4.49-2.32,3.89-4.94c-0.32-1.43-1.48-2.6-2.91-2.94c-1.35-0.33-2.6,0.04-3.51,0.8c-0.19,0.16-0.49,0.06-0.52-0.19
		C66.69,9.3,63.95,6.8,60.62,6.8c-2.45,0-4.58,1.35-5.69,3.35c-0.99-0.39-2.11-0.5-3.31-0.11C49.84,10.62,48.46,12.16,48.18,14.02"
		/>
	<line id="XMLID_304_" class="st0" x1="49.12" y1="32.8" x2="51.12" y2="23.8"/>
	<line id="XMLID_302_" class="st0" x1="69.12" y1="32.8" x2="71.12" y2="23.8"/>
	<polygon id="XMLID_55_" class="st0" points="63.12,19.8 57.87,19.8 56.12,26.8 59.12,26.8 58.12,32.8 66.12,23.8 62.12,23.8 	"/>
</g>
<g>
	<path id="XMLID_276_" class="Graphic_x0020_Style_x0020_88" d="M-20.18,3.08c-1.35-0.33-2.6,0.04-3.51,0.8
		c-0.19,0.16-0.49,0.06-0.52-0.19c-0.38-3.23-3.12-5.73-6.45-5.73c-2.45,0-4.58,1.35-5.69,3.35c-0.99-0.39-2.11-0.5-3.31-0.11
		c-1.79,0.58-3.17,2.12-3.45,3.98c-0.47,3.11,1.92,5.78,4.94,5.78h17c2.51,0,4.49-2.32,3.89-4.94C-17.6,4.59-18.75,3.42-20.18,3.08z
		"/>
	<path id="XMLID_323_" class="Graphic_x0020_Style_x0020_89" d="M-29.17,18.96c-1.1,0-2-0.9-2-2l0,0c0-1.1,0.9-2,2-2h10"/>
	<path id="XMLID_278_" class="Graphic_x0020_Style_x0020_89" d="M-24.17,23.96c-1.1,0-2-0.9-2-2l0,0c0-1.1,0.9-2,2-2h5"/>
	<circle id="XMLID_298_" cx="-43.17" cy="21.96" r="1"/>
	<circle id="XMLID_297_" cx="-41.17" cy="15.96" r="1"/>
	<circle id="XMLID_15_" cx="-38.17" cy="21.96" r="1"/>
	<circle id="XMLID_14_" cx="-36.17" cy="15.96" r="1"/>
</g>
<g>
	<path id="XMLID_258_" class="Graphic_x0020_Style_x0020_84" d="M41.82-26.88c-1.35-0.33-2.6,0.04-3.51,0.8
		c-0.19,0.16-0.49,0.06-0.52-0.19C37.4-29.5,34.66-32,31.33-32c-2.45,0-4.58,1.35-5.69,3.35c-0.99-0.39-2.11-0.5-3.31-0.11
		c-1.79,0.58-3.17,2.12-3.45,3.98C18.42-21.67,20.82-19,23.83-19h17c2.51,0,4.49-2.32,3.89-4.94C44.4-25.37,43.25-26.53,41.82-26.88
		z"/>
	<line id="XMLID_260_" class="st0" x1="20.83" y1="-6" x2="22.83" y2="-15"/>
	<line id="XMLID_261_" class="st0" x1="27.5" y1="-9" x2="28.83" y2="-15"/>
	<line id="XMLID_262_" class="st0" x1="32.83" y1="-6" x2="34.83" y2="-15"/>
	<line id="XMLID_263_" class="st0" x1="39.5" y1="-9" x2="40.83" y2="-15"/>
</g>
<g>
	<path id="XMLID_00000052827092413802350510000001674362496335229630_" class="Graphic_x0020_Style_x0020_88" d="M8.82-26.92
		c-1.35-0.33-2.6,0.04-3.51,0.8c-0.19,0.16-0.49,0.06-0.52-0.19c-0.38-3.23-3.12-5.73-6.45-5.73c-2.45,0-4.58,1.35-5.69,3.35
		c-0.99-0.39-2.11-0.5-3.31-0.11c-1.79,0.58-3.17,2.12-3.45,3.98c-0.47,3.11,1.92,5.78,4.94,5.78h17c2.51,0,4.49-2.32,3.89-4.94
		C11.4-25.41,10.25-26.58,8.82-26.92z"/>
	<path id="XMLID_00000037650872558888275940000000302040127200920213_" class="Graphic_x0020_Style_x0020_89" d="M-0.17-11.04
		c-1.1,0-2-0.9-2-2l0,0c0-1.1,0.9-2,2-2h10"/>
	<path id="XMLID_00000111891594490215607670000005451576343368815805_" class="Graphic_x0020_Style_x0020_89" d="M4.83-6.04
		c-1.1,0-2-0.9-2-2l0,0c0-1.1,0.9-2,2-2h5"/>
	<circle id="XMLID_00000007386470147764737220000016812850107534046867_" cx="-14.17" cy="-8.04" r="1"/>
	<circle id="XMLID_00000134224712111539407100000000270621423004403362_" cx="-12.17" cy="-14.04" r="1"/>
	<circle id="XMLID_00000126321366736503164730000012714731938861343904_" cx="-9.17" cy="-8.04" r="1"/>
	<circle id="XMLID_00000144324369852118299070000015214100596053595017_" cx="-7.17" cy="-14.04" r="1"/>
</g>
</svg>
