<?xml version="1.0" encoding="utf-8"?>
<!-- Generator: Adobe Illustrator 26.0.2, SVG Export Plug-In . SVG Version: 6.00 Build 0)  -->
<svg version="1.1" id="Layer_1" xmlns="http://www.w3.org/2000/svg" xmlns:xlink="http://www.w3.org/1999/xlink" x="0px" y="0px"
	 viewBox="0 0 32 32" style="enable-background:new 0 0 32 32;" xml:space="preserve">
<style type="text/css">
	
		.Graphic_x0020_Style_x0020_88{fill:none;stroke:#000000;stroke-width:2;stroke-linecap:round;stroke-linejoin:round;stroke-miterlimit:10;}
	.st0{fill:none;stroke:#000000;stroke-width:2;stroke-linecap:round;stroke-linejoin:round;stroke-miterlimit:10;}
</style>
<g>
	<path id="XMLID_98_" class="Graphic_x0020_Style_x0020_88" d="M3.06,10.22C2.59,13.33,4.98,16,8,16h17c2.51,0,4.49-2.32,3.89-4.94
		c-0.32-1.43-1.48-2.6-2.91-2.94c-1.35-0.33-2.6,0.04-3.51,0.8c-0.19,0.16-0.49,0.06-0.52-0.19C21.57,5.5,18.83,3,15.5,3
		c-2.45,0-4.58,1.35-5.69,3.35C8.83,5.97,7.7,5.85,6.51,6.24C4.72,6.82,3.34,8.36,3.06,10.22"/>
	<line id="XMLID_100_" class="st0" x1="16" y1="20" x2="16" y2="29"/>
	<line id="XMLID_102_" class="st0" x1="8" y1="20" x2="8" y2="29"/>
	<line id="XMLID_103_" class="st0" x1="24" y1="20" x2="24" y2="29"/>
	<line id="XMLID_101_" class="st0" x1="12" y1="20" x2="12" y2="26"/>
	<line id="XMLID_99_" class="st0" x1="20" y1="20" x2="20" y2="26"/>
</g>
</svg>
